HIERARCHY
ROOT Hips
{
	OFFSET 0.000000 0.000000 0.000000 
	CHANNELS 6 Xposition Yposition Zposition Zrotation Yrotation Xrotation
	JOINT LeftUpLeg
	{
		OFFSET 1.363060 -1.794630 0.839290 
		CHANNELS 3 Zrotation Yrotation Xrotation
		JOINT LeftLeg
		{
			OFFSET 2.448110 -6.726130 0.000000 
			CHANNELS 3 Zrotation Yrotation Xrotation
			JOINT LeftFoot
			{
				OFFSET 2.562200 -7.039590 0.000000 
				CHANNELS 3 Zrotation Yrotation Xrotation
				JOINT LeftToeBase
				{
					OFFSET 0.157640 -0.433110 2.322550 
					CHANNELS 3 Zrotation Yrotation Xrotation
					End Site
					{
						OFFSET 0.000000 0.000000 0.000000 
					}
				}
			}
		}
	}
	JOINT RightUpLeg
	{
		OFFSET -1.305520 -1.794630 0.839290 
		CHANNELS 3 Zrotation Yrotation Xrotation
		JOINT RightLeg
		{
			OFFSET -2.542530 -6.985550 0.000000 
			CHANNELS 3 Zrotation Yrotation Xrotation
			JOINT RightFoot
			{
				OFFSET -2.568260 -7.056230 0.000000 
				CHANNELS 3 Zrotation Yrotation Xrotation
				JOINT RightToeBase
				{
					OFFSET -0.164730 -0.452590 2.363150 
					CHANNELS 3 Zrotation Yrotation Xrotation
					End Site
					{
						OFFSET 0.000000 0.000000 0.000000 
					}
				}
			}
		}
	}
	JOINT Spine
	{
		OFFSET 0.028270 2.035590 -0.193380 
		CHANNELS 3 Zrotation Yrotation Xrotation
		JOINT Spine1
		{
			OFFSET 0.056720 2.048850 -0.042750 
			CHANNELS 3 Zrotation Yrotation Xrotation
			JOINT Neck1
			{
				OFFSET -0.054170 1.746240 0.172020 
				CHANNELS 3 Zrotation Yrotation Xrotation
				JOINT Head
				{
					OFFSET 0.104070 1.761360 -0.123970 
					CHANNELS 3 Zrotation Yrotation Xrotation
					End Site
					{
						OFFSET 0.000000 0.000000 0.000000 
					}
				}
			}
			JOINT LeftArm
			{
				OFFSET 3.362410 1.200890 -0.311210 
				CHANNELS 3 Zrotation Yrotation Xrotation
				JOINT LeftForeArm
				{
					OFFSET 4.983000 -0.000000 -0.000000 
					CHANNELS 3 Zrotation Yrotation Xrotation
					JOINT LeftHand
					{
						OFFSET 3.483560 -0.000000 -0.000000 
						CHANNELS 3 Zrotation Yrotation Xrotation
						JOINT LeftHandIndex1
						{
							OFFSET 0.715260 -0.000000 -0.000000 
							CHANNELS 3 Zrotation Yrotation Xrotation
							End Site
							{
								OFFSET 0.000000 0.000000 0.000000 
							}
						}
					}
				}
			}
			JOINT RightArm
			{
				OFFSET -3.136600 1.374050 -0.404650 
				CHANNELS 3 Zrotation Yrotation Xrotation
				JOINT RightForeArm
				{
					OFFSET -5.241900 -0.000000 -0.000000 
					CHANNELS 3 Zrotation Yrotation Xrotation
					JOINT RightHand
					{
						OFFSET -3.444170 -0.000000 -0.000000 
						CHANNELS 3 Zrotation Yrotation Xrotation
						JOINT RightHandIndex1
						{
							OFFSET -0.622530 -0.000000 -0.000000 
							CHANNELS 3 Zrotation Yrotation Xrotation
							End Site
							{
								OFFSET 0.000000 0.000000 0.000000 
							}
						}
					}
				}
			}
		}
	}
}
MOTION
Frames: 13
Frame Time: 0.041667
4.159330 16.927205 -2.539277 17.693106 -82.034555 -0.572844 -2.086304 -22.685558 -44.121853 7.651796 17.916425 53.490436 -0.494214 3.578106 -2.151740 0.000000 -0.037000 -0.101600 18.319412 13.239260 -45.800545 -6.784205 -16.035155 50.732735 -0.395756 -5.079803 -18.584614 -0.738300 -5.489200 15.309300 1.156077 -0.022681 3.238506 -1.186930 0.839971 -4.125529 14.507695 -7.843658 -19.592071 4.524000 -5.289400 -2.811900 -99.258913 -75.234106 82.165623 149.729700 -39.700311 -108.431703 1.179475 -1.535144 9.476711 -7.125000 0.000000 0.000000 30.021545 54.143955 4.150635 -149.999959 30.625555 -110.453065 -1.708116 0.276981 -10.319998 7.125000 0.000000 0.000000 
4.181818 16.911206 -2.505936 17.523265 -82.268866 -0.258405 -2.124768 -22.691161 -44.433403 8.065028 18.182142 54.780505 -0.461088 3.409044 -2.343550 0.000100 0.071300 0.195900 18.234672 13.338163 -46.131574 -6.803600 -16.080592 50.814058 -0.376744 -5.047320 -18.350506 -0.659200 -5.192900 14.459600 1.121552 0.046601 3.198322 -1.479210 0.875055 -4.132943 15.524900 -7.748300 -19.408266 4.813600 -5.283200 -2.658600 -99.918956 -75.351288 82.921526 149.846769 -39.745950 -108.467814 1.200558 -1.500698 9.064314 -7.125000 0.000000 0.000000 29.485021 54.111867 3.115773 -150.169769 30.830862 -110.501615 -1.647788 0.281771 -10.400080 7.125000 0.000000 0.000000 
4.207103 16.893193 -2.472035 17.049503 -82.541769 0.379843 -2.132043 -22.642793 -44.745476 8.480653 18.442691 56.065734 -0.450921 3.383918 -2.754879 0.003900 -0.404500 -1.111400 18.190779 13.475246 -46.485347 -6.823509 -16.125454 50.896885 -0.365401 -4.991055 -18.148756 -0.617600 -5.029400 13.992400 1.167923 0.078594 3.105455 -1.606771 0.896263 -4.246359 16.103248 -7.621696 -19.374647 4.993700 -5.245100 -2.603800 -100.499143 -75.458929 83.438025 149.941642 -39.787454 -108.495064 1.224287 -1.460688 8.626014 -7.125000 0.000000 0.000000 29.174752 54.188576 2.537382 -150.246872 30.998734 -110.496254 -1.604738 0.297123 -10.414191 7.125000 0.000000 0.000000 
4.223997 16.886704 -2.444065 16.856254 -82.891458 0.586276 -2.170391 -22.571075 -44.839181 8.871571 18.656423 57.271787 -0.338517 2.855490 -3.156367 0.010500 -0.660600 -1.815300 18.169109 13.616252 -46.588576 -6.843916 -16.147813 50.964593 -0.381142 -4.809439 -18.010857 -0.610500 -5.001000 13.911500 1.250912 0.111217 3.048744 -1.526473 0.918029 -4.409306 16.001257 -7.507386 -19.521679 4.962600 -5.196300 -2.676000 -101.215890 -75.698714 84.005540 150.029118 -39.880303 -108.502863 1.251571 -1.410476 8.172281 -7.125000 0.000000 0.000000 29.062542 54.339762 2.371258 -150.312286 31.064087 -110.481318 -1.584171 0.300974 -10.368586 7.125000 0.000000 0.000000 
4.238095 16.880886 -2.415087 17.295793 -83.187765 0.159359 -2.265731 -22.572970 -44.890573 9.235887 18.834616 58.391901 -0.164078 1.967223 -3.340650 0.002200 -0.303500 -0.833900 18.037945 13.731100 -46.695137 -6.860271 -16.171797 51.019939 -0.392927 -4.652549 -17.877223 -0.590200 -4.918400 13.676000 1.335880 0.115400 3.061038 -1.375243 0.924847 -4.427144 15.848820 -7.369262 -19.674823 4.925100 -5.127900 -2.736600 -101.856422 -76.025096 84.630254 150.160982 -39.931658 -108.539341 1.280540 -1.357043 7.771826 -7.125000 0.000000 0.000000 28.796776 54.514636 1.989809 -150.386252 31.212982 -110.488121 -1.551080 0.280703 -10.451985 7.125000 0.000000 0.000000 
4.252863 16.879207 -2.385439 18.016018 -83.484307 -0.501729 -2.397024 -22.563557 -44.876464 9.560726 18.978026 59.383321 0.000054 1.091006 -3.439695 0.002000 0.288000 0.791400 17.841210 13.911962 -46.826122 -6.869470 -16.193336 51.050975 -0.397308 -4.532087 -17.730115 -0.583900 -4.892800 13.603100 1.452948 0.135154 3.077216 -1.154541 0.940270 -4.387812 16.024910 -7.189712 -19.858290 5.021100 -5.049400 -2.774500 -102.355660 -76.316044 85.147968 150.331511 -39.916999 -108.606696 1.306514 -1.308613 7.481599 -7.125000 0.000000 0.000000 28.365160 54.667659 1.363687 -150.470527 31.449243 -110.509225 -1.498063 0.266619 -10.643981 7.125000 0.000000 0.000000 
4.268415 16.871600 -2.354895 18.351501 -83.689390 -0.772645 -2.481275 -22.596516 -44.850418 9.861656 19.106137 60.290016 0.116190 0.464677 -3.610544 0.004700 0.441100 1.211900 17.670943 14.074855 -46.978452 -6.879973 -16.216864 51.089707 -0.381762 -4.515602 -17.547507 -0.583500 -4.890900 13.597800 1.606428 0.129742 3.076225 -0.902279 0.942978 -4.416673 16.140129 -7.041665 -19.969106 5.072000 -4.982700 -2.781200 -103.006658 -76.446696 85.699125 150.505773 -39.906245 -108.676721 1.323902 -1.269486 7.309512 -7.125000 0.000000 0.000000 27.941735 54.811669 0.758300 -150.612960 31.653387 -110.531954 -1.441186 0.264731 -10.867484 7.125000 0.000000 0.000000 
4.282400 16.860747 -2.323344 17.779594 -83.919943 -0.240374 -2.495717 -22.525664 -44.715358 10.143075 19.219326 61.125831 0.209567 -0.027778 -3.842543 0.000000 0.042700 0.117400 17.633312 14.305270 -47.000363 -6.898796 -16.230120 51.150296 -0.369245 -4.520792 -17.426423 -0.614700 -5.017900 13.959700 1.765472 0.159428 3.130145 -0.726399 0.957147 -4.375961 16.210582 -6.938505 -20.273274 5.120900 -4.951500 -2.843200 -103.911494 -76.590624 86.426477 150.668945 -39.945762 -108.732520 1.338748 -1.224097 6.965371 -7.125000 0.000000 0.000000 27.384376 54.936447 -0.106291 -150.811474 31.891763 -110.561003 -1.373137 0.254555 -11.087967 7.125000 0.000000 0.000000 
4.298735 16.854593 -2.283738 17.185520 -84.357629 0.423514 -2.452880 -22.378132 -44.667099 10.394257 19.326009 61.870165 0.330263 -0.703304 -3.949971 0.000000 0.000500 0.001400 17.574993 14.659616 -47.167758 -6.914941 -16.249608 51.200998 -0.363158 -4.413602 -17.185986 -0.645400 -5.139200 14.305900 1.875978 0.285659 3.170966 -0.691908 1.014343 -4.215294 16.462019 -6.842313 -20.756816 5.249600 -4.945900 -2.949300 -104.871747 -76.854692 87.164883 150.851186 -39.987841 -108.792840 1.357322 -1.163108 6.232700 -7.125000 0.000000 0.000000 26.696322 55.035129 -1.229065 -151.022641 32.153445 -110.613454 -1.298531 0.242162 -11.323763 7.125000 0.000000 0.000000 
4.318426 16.837028 -2.234286 17.856238 -84.820211 -0.006191 -2.522692 -22.293843 -44.769683 10.623609 19.426680 62.556757 0.420612 -1.190990 -4.174568 0.000900 0.191700 0.526700 17.320419 14.916260 -47.638334 -6.924846 -16.296088 51.243898 -0.348782 -4.260377 -16.783861 -0.627200 -5.067900 14.102200 2.069626 0.437126 3.227726 -0.414849 1.081871 -3.946721 16.478273 -6.816198 -21.059745 5.305300 -4.941300 -2.978600 -106.203910 -77.103601 88.222547 151.093963 -40.043991 -108.871474 1.379504 -1.086066 5.283140 -7.125000 0.000000 0.000000 25.816710 55.180634 -2.434064 -151.310212 32.452991 -110.696025 -1.205964 0.228009 -11.555895 7.125000 0.000000 0.000000 
4.332859 16.826623 -2.196470 18.623836 -85.268601 -0.803028 -2.719708 -22.042625 -44.442508 10.796283 19.465066 63.068160 0.528168 -1.653453 -4.737421 0.000000 -0.031900 -0.087700 17.186618 15.120081 -47.713726 -6.934818 -16.309579 51.272155 -0.343352 -4.150419 -16.543601 -0.606900 -4.986500 13.870000 2.019344 0.481306 3.137884 -0.540731 1.109684 -4.306544 16.713693 -6.804648 -20.724641 5.334600 -4.927800 -2.851700 -106.182717 -77.038477 88.623935 151.125120 -40.007005 -108.902493 1.387760 -1.078901 4.484131 -7.125000 0.000000 0.000000 26.021234 55.246701 -2.230344 -151.333182 32.352161 -110.706409 -1.218454 0.240210 -11.410033 7.125000 0.000000 0.000000 
4.346061 16.832217 -2.166709 18.061769 -85.696324 -0.492179 -2.817417 -21.778121 -43.801304 10.902329 19.448309 63.364483 0.726722 -2.698174 -5.034242 0.003600 0.389700 1.070700 17.262984 15.318974 -47.424622 -6.947166 -16.289572 51.292922 -0.342015 -4.082102 -16.413325 -0.584900 -4.896800 13.614300 2.188797 0.519882 3.365088 -0.219748 1.121870 -4.192737 16.874529 -6.634273 -20.917235 5.383400 -4.861000 -2.851500 -106.848902 -77.468039 89.165473 151.264772 -40.053874 -108.948655 1.388463 -1.042054 4.187098 -7.125000 0.000000 0.000000 25.627906 55.541574 -2.824133 -151.662853 32.406371 -110.789952 -1.162549 0.227928 -11.657016 7.125000 0.000000 0.000000 
4.365305 16.828301 -2.126767 16.839758 -86.030469 0.569798 -2.813054 -21.708483 -43.291558 10.967829 19.422306 63.533210 0.935765 -3.956131 -5.000960 0.054300 1.503300 4.134900 17.294942 15.453684 -47.317878 -6.963099 -16.286987 51.333815 -0.339397 -3.983109 -16.215863 -0.572100 -4.843900 13.463800 2.337103 0.444664 3.579215 0.023581 1.082951 -4.199638 16.489659 -6.760057 -19.936865 5.132000 -4.833100 -2.475700 -106.923570 -78.015586 88.938869 151.383743 -40.048597 -108.987814 1.388729 -1.009827 4.185761 -7.125000 0.000000 0.000000 25.369107 55.866655 -3.461457 -151.966866 32.401839 -110.895557 -1.120901 0.201226 -12.256094 7.125000 0.000000 0.000000 
